<?xml version="1.0" encoding="UTF-8" standalone="no"?>
<!DOCTYPE svg PUBLIC "-//W3C//DTD SVG 1.1//EN"
 "http://www.w3.org/Graphics/SVG/1.1/DTD/svg11.dtd">
<!-- Generated by graphviz version 10.0.1 (20240210.2158)
 -->
<!-- Title: phase Pages: 1 -->
<svg width="566pt" height="461pt"
 viewBox="0.00 0.00 566.00 460.97" xmlns="http://www.w3.org/2000/svg" xmlns:xlink="http://www.w3.org/1999/xlink">
<g id="graph0" class="graph" transform="scale(1 1) rotate(0) translate(4 456.97)">
<title>phase</title>
<polygon fill="white" stroke="none" points="-4,4 -4,-456.97 562,-456.97 562,4 -4,4"/>
<g id="clust1" class="cluster">
<title>cluster_frontend</title>
<polygon fill="lightcyan" stroke="black" stroke-dasharray="5,2" points="8,-97.49 8,-335.98 240,-335.98 240,-97.49 8,-97.49"/>
<text text-anchor="middle" x="43.38" y="-318.68" font-family="Times,serif" font-size="14.00">Front End</text>
</g>
<g id="clust3" class="cluster">
<title>cluster_backend</title>
<polygon fill="lightyellow" stroke="black" stroke-dasharray="5,2" points="318,-181.48 318,-444.97 550,-444.97 550,-181.48 318,-181.48"/>
<text text-anchor="middle" x="352.62" y="-427.67" font-family="Times,serif" font-size="14.00">Back End</text>
</g>
<!-- file -->
<g id="node1" class="node">
<title>file</title>
<ellipse fill="none" stroke="black" cx="162" cy="-391.97" rx="108" ry="28.99"/>
<text text-anchor="middle" x="162" y="-395.17" font-family="Times,serif" font-size="14.00">Source Code</text>
<text text-anchor="middle" x="162" y="-378.67" font-family="Times,serif" font-size="14.00">hello.pas</text>
</g>
<!-- lexical -->
<g id="node2" class="node">
<title>lexical</title>
<polygon fill="none" stroke="black" points="232,-303.48 16,-303.48 16,-267.48 232,-267.48 232,-303.48"/>
<text text-anchor="middle" x="124" y="-280.43" font-family="Times,serif" font-size="14.00">Lexical Analysis</text>
</g>
<!-- file&#45;&gt;lexical -->
<g id="edge1" class="edge">
<title>file&#45;&gt;lexical</title>
<path fill="none" stroke="black" d="M151.72,-362.7C146.29,-347.77 139.64,-329.5 134.22,-314.6"/>
<polygon fill="black" stroke="black" points="137.58,-313.59 130.87,-305.38 131,-315.98 137.58,-313.59"/>
<text text-anchor="middle" x="192.75" y="-339.43" font-family="Times,serif" font-size="14.00"> character stream </text>
</g>
<!-- symtab -->
<g id="node6" class="node">
<title>symtab</title>
<polygon fill="none" stroke="sienna" points="532,-57.5 328,-57.5 328,-61.5 316,-61.5 316,0 532,0 532,-57.5"/>
<polyline fill="none" stroke="sienna" points="316,-57.5 328,-57.5"/>
<text text-anchor="middle" x="424" y="-40.2" font-family="Times,serif" font-size="14.00">Symbol Table</text>
<text text-anchor="middle" x="424" y="-23.7" font-family="Times,serif" font-size="14.00">&#45; var counter: 1</text>
<text text-anchor="middle" x="424" y="-7.2" font-family="Times,serif" font-size="14.00">&#45; const msg: &quot;text&quot;</text>
</g>
<!-- file&#45;&gt;symtab -->
<!-- syntax -->
<g id="node3" class="node">
<title>syntax</title>
<polygon fill="none" stroke="black" points="232,-227.98 16,-227.98 16,-191.98 232,-191.98 232,-227.98"/>
<text text-anchor="middle" x="124" y="-204.93" font-family="Times,serif" font-size="14.00">Syntax Analysis</text>
</g>
<!-- lexical&#45;&gt;syntax -->
<g id="edge2" class="edge">
<title>lexical&#45;&gt;syntax</title>
<path fill="none" stroke="black" d="M124,-267.06C124,-258.92 124,-249 124,-239.78"/>
<polygon fill="black" stroke="black" points="127.5,-239.79 124,-229.79 120.5,-239.79 127.5,-239.79"/>
<text text-anchor="middle" x="163" y="-243.93" font-family="Times,serif" font-size="14.00"> token stream </text>
</g>
<!-- semantic -->
<g id="node4" class="node">
<title>semantic</title>
<polygon fill="none" stroke="black" points="232,-141.49 16,-141.49 16,-105.49 232,-105.49 232,-141.49"/>
<text text-anchor="middle" x="124" y="-118.44" font-family="Times,serif" font-size="14.00">Semantic Analysis</text>
</g>
<!-- syntax&#45;&gt;semantic -->
<g id="edge3" class="edge">
<title>syntax&#45;&gt;semantic</title>
<path fill="none" stroke="black" d="M124,-191.88C124,-180.74 124,-165.91 124,-153.01"/>
<polygon fill="black" stroke="black" points="127.5,-153.37 124,-143.37 120.5,-153.37 127.5,-153.37"/>
<text text-anchor="middle" x="157.38" y="-165.93" font-family="Times,serif" font-size="14.00"> syntax tree </text>
</g>
<!-- ir -->
<g id="node5" class="node">
<title>ir</title>
<polygon fill="none" stroke="#8b1a1a" points="289,-40.75 73,-40.75 73,-16.75 289,-16.75 289,-40.75"/>
<polyline fill="none" stroke="#8b1a1a" points="76,-30.25 79,-27.25"/>
<polyline fill="none" stroke="#8b1a1a" points="76,-27.25 79,-30.25"/>
<polyline fill="none" stroke="#8b1a1a" points="76,-19.75 286,-19.75"/>
<text text-anchor="middle" x="181" y="-23.7" font-family="Times,serif" font-size="14.00">Intermediate Code Generation</text>
</g>
<!-- semantic&#45;&gt;ir -->
<g id="edge4" class="edge">
<title>semantic&#45;&gt;ir</title>
<path fill="none" stroke="black" d="M134.72,-105.05C143.08,-91.45 154.84,-72.32 164.41,-56.74"/>
<polygon fill="black" stroke="black" points="167.28,-58.76 169.53,-48.41 161.32,-55.09 167.28,-58.76"/>
<text text-anchor="middle" x="230" y="-70.95" font-family="Times,serif" font-size="14.00"> intermediate representation </text>
</g>
<!-- opt1 -->
<g id="node8" class="node">
<title>opt1</title>
<polygon fill="none" stroke="black" points="542,-412.47 326,-412.47 326,-371.47 542,-371.47 542,-412.47"/>
<text text-anchor="middle" x="434" y="-395.17" font-family="Times,serif" font-size="14.00">Machine&#45;Indenpendent</text>
<text text-anchor="middle" x="434" y="-378.67" font-family="Times,serif" font-size="14.00">Code Optimization</text>
</g>
<!-- ir&#45;&gt;opt1 -->
<g id="edge7" class="edge">
<title>ir&#45;&gt;opt1</title>
<path fill="none" stroke="black" d="M230.96,-47.11C262.76,-61.7 298,-86.07 298,-122.49 298,-286.48 298,-286.48 298,-286.48 298,-310.05 300.96,-318.72 317,-335.98 328.66,-348.52 343.76,-358.47 359.21,-366.26"/>
<polygon fill="black" stroke="black" points="357.48,-369.32 368.02,-370.43 360.48,-362.99 357.48,-369.32"/>
</g>
<!-- bin -->
<g id="node7" class="node">
<title>bin</title>
<ellipse fill="none" stroke="black" cx="434" cy="-123.49" rx="108" ry="28.99"/>
<text text-anchor="middle" x="434" y="-126.69" font-family="Times,serif" font-size="14.00">Executable Binary</text>
<text text-anchor="middle" x="434" y="-110.19" font-family="Times,serif" font-size="14.00">a.out</text>
</g>
<!-- bin&#45;&gt;symtab -->
<!-- target -->
<g id="node9" class="node">
<title>target</title>
<polygon fill="none" stroke="black" points="542,-303.48 326,-303.48 326,-267.48 542,-267.48 542,-303.48"/>
<text text-anchor="middle" x="434" y="-280.43" font-family="Times,serif" font-size="14.00">Target Code Generation</text>
</g>
<!-- opt1&#45;&gt;target -->
<g id="edge8" class="edge">
<title>opt1&#45;&gt;target</title>
<path fill="none" stroke="black" d="M434,-371.32C434,-355.57 434,-333.23 434,-315.43"/>
<polygon fill="black" stroke="black" points="437.5,-315.48 434,-305.48 430.5,-315.48 437.5,-315.48"/>
<text text-anchor="middle" x="493.25" y="-339.43" font-family="Times,serif" font-size="14.00"> target&#45;machine code </text>
</g>
<!-- opt2 -->
<g id="node10" class="node">
<title>opt2</title>
<polygon fill="none" stroke="black" points="542,-230.48 326,-230.48 326,-189.48 542,-189.48 542,-230.48"/>
<text text-anchor="middle" x="434" y="-213.18" font-family="Times,serif" font-size="14.00">Machine&#45;Denpendent</text>
<text text-anchor="middle" x="434" y="-196.68" font-family="Times,serif" font-size="14.00">Code Optimization</text>
</g>
<!-- target&#45;&gt;opt2 -->
<g id="edge9" class="edge">
<title>target&#45;&gt;opt2</title>
<path fill="none" stroke="black" d="M434,-267.06C434,-259.68 434,-250.83 434,-242.38"/>
<polygon fill="black" stroke="black" points="437.5,-242.39 434,-232.39 430.5,-242.39 437.5,-242.39"/>
<text text-anchor="middle" x="493.25" y="-243.93" font-family="Times,serif" font-size="14.00"> target&#45;machine code </text>
</g>
<!-- opt2&#45;&gt;bin -->
<g id="edge10" class="edge">
<title>opt2&#45;&gt;bin</title>
<path fill="none" stroke="black" d="M434,-189.39C434,-181.86 434,-172.98 434,-164.23"/>
<polygon fill="black" stroke="black" points="437.5,-164.46 434,-154.46 430.5,-164.46 437.5,-164.46"/>
</g>
</g>
</svg>
